# xmcd
#
# Track frame offsets:
#   150
#   17988
#   34336
#   46344
#   62953
#   77037
#   94427
#   111355
#   132320
#   153321
#   169988
#   187101
#   201112
#   214937
#   228923
#
# Disc length: 3292 seconds
#
# Revision: 0
# Processed by: cddbd v1.5.1PL0 Copyright (c) Steve Scherf et al.
# Submitted via: uFREEDB ActiveX Control 1.5
#
DISCID=dd0cda0f
DTITLE=Marciano - Encontros
DYEAR=1998
DGENRE=Country
TTITLE0=Miragem
TTITLE1=Se eu não puder te esquecer
TTITLE2=Louco por você
TTITLE3=Aline
TTITLE4=Ainda ontem chorei de saudades
TTITLE5=É gostoso demais
TTITLE6=Caro amigo
TTITLE7=Meu primeiro amor
TTITLE8=Eu gosto sim
TTITLE9=Seu amor ainda é tudo
TTITLE10=O cantor e o peão
TTITLE11=Canção do mais puro amor
TTITLE12=Crises de amor
TTITLE13=Esta noite como lembrança
TTITLE14=Minha fé esta contigo
EXTD=
EXTT0=
EXTT1=
EXTT2=
EXTT3=
EXTT4=
EXTT5=
EXTT6=
EXTT7=
EXTT8=
EXTT9=
EXTT10=
EXTT11=
EXTT12=
EXTT13=
EXTT14=
PLAYORDER=
